<svg width="41" height="41" viewBox="0 0 41 41" fill="none" xmlns="http://www.w3.org/2000/svg">
<path d="M20.7163 40.027C20.0866 40.027 19.3877 40.027 18.758 39.958C13.4367 39.475 8.60676 36.922 5.1815 32.851C1.75623 28.78 0.143934 23.605 0.628315 18.361C1.1127 13.117 3.7076 8.356 7.83867 4.975C11.9698 1.594 17.2218 0.00699776 22.5362 0.489998C27.8575 0.972998 32.6874 3.526 36.1127 7.597C39.5449 11.668 41.1503 16.843 40.6659 22.087C40.1746 27.331 37.5866 32.092 33.4555 35.473C29.8157 38.44 25.3387 40.027 20.7163 40.027ZM20.6471 2.077C16.516 2.077 12.3849 3.457 8.95967 6.217C5.1815 9.253 2.80111 13.6 2.37901 18.43C1.88771 23.26 3.36161 27.952 6.51009 31.678C9.65856 35.404 13.9972 37.75 18.9033 38.164C23.8025 38.647 28.5633 37.198 32.3414 34.093C40.1815 27.745 41.2333 16.291 34.791 8.563C31.2204 4.285 25.8992 2.077 20.654 2.077H20.6471Z" fill="black"/>
<path d="M20.5779 23.95C18.4743 23.95 16.7997 22.294 16.7997 20.224C16.7997 18.154 18.4812 16.498 20.5779 16.498C22.6746 16.498 24.3561 18.154 24.3561 20.224C24.3561 22.294 22.6746 23.95 20.5779 23.95ZM20.5779 18.154C19.4569 18.154 18.5504 19.051 18.5504 20.155C18.5504 21.259 19.4638 22.156 20.5779 22.156C21.692 22.156 22.6054 21.259 22.6054 20.155C22.6054 19.051 21.692 18.154 20.5779 18.154Z" fill="black"/>
<path d="M28.3487 27.262H12.807C11.8244 27.262 11.0563 26.503 11.0563 25.537V14.842C11.0563 13.876 11.8244 13.117 12.807 13.117H13.8588L14.3501 12.013C14.5577 11.461 15.1182 11.047 15.7479 11.047H19.1109C19.7406 11.047 20.3011 11.392 20.5087 12.013L21 13.117H28.4179C29.4005 13.117 30.1686 13.876 30.1686 14.842V25.468C30.0994 26.434 29.3313 27.262 28.3487 27.262ZM12.807 14.842V25.537H28.3487V14.842H20.3703C20.0174 14.842 19.6714 14.635 19.533 14.29L18.9033 12.772H15.8932L15.2635 14.29C15.1251 14.635 14.8414 14.842 14.4262 14.842H12.8139H12.807Z" fill="black"/>
</svg>
