<svg width="90" height="90" viewBox="0 0 90 90" fill="none" xmlns="http://www.w3.org/2000/svg">
<path d="M45 89.999C38.9262 89.999 33.0334 88.8085 27.4835 86.4613C22.1244 84.1949 17.3123 80.9509 13.1812 76.8188C9.04912 72.6867 5.80512 67.8747 3.53874 62.5165C1.1905 56.9666 0 51.0729 0 45C0 38.9271 1.1905 33.0334 3.53778 27.4835C5.80415 22.1244 9.04816 17.3123 13.1802 13.1812C17.3123 9.05009 22.1244 5.80512 27.4826 3.53874C33.0324 1.1905 38.9262 0 45 0C46.7655 0 48.1978 1.43129 48.1978 3.19777C48.1978 4.96426 46.7665 6.39555 45 6.39555C39.7872 6.39555 34.7315 7.41556 29.9743 9.42765C25.378 11.3723 21.2488 14.1559 17.7024 17.7024C14.1559 21.2488 11.3723 25.378 9.42765 29.9743C7.41556 34.7315 6.39555 39.7872 6.39555 45C6.39555 50.2128 7.41556 55.2685 9.42765 60.0257C11.3723 64.622 14.1559 68.7512 17.7024 72.2976C21.2488 75.8441 25.378 78.6277 29.9743 80.5723C34.7315 82.5844 39.7872 83.6045 45 83.6045C50.2128 83.6045 55.2685 82.5844 60.0257 80.5723C64.622 78.6277 68.7512 75.8441 72.2976 72.2976C75.8441 68.7512 78.6277 64.622 80.5723 60.0257C82.5844 55.2685 83.6045 50.2128 83.6045 45C83.6045 34.9126 79.7382 25.3703 72.7185 18.13C71.4895 16.8625 71.5203 14.8379 72.7888 13.6088C74.0564 12.3798 76.081 12.4106 77.31 13.6792C85.4933 22.1186 90 33.2424 90 45.001C90 51.0748 88.8095 56.9676 86.4622 62.5174C84.1958 67.8766 80.9518 72.6887 76.8198 76.8198C72.6877 80.9518 67.8756 84.1958 62.5174 86.4622C56.9676 88.8095 51.0738 90 45.001 90L45 89.999Z" fill="black"/>
<path d="M38.1663 68.6616C37.3408 68.6616 36.5442 68.3418 35.9471 67.7658L19.1231 51.5391C17.8517 50.3129 17.8151 48.2893 19.0412 47.0179C20.2674 45.7465 22.291 45.7099 23.5624 46.936L37.8503 60.7173L66.1506 25.0303C67.2477 23.6472 69.2588 23.415 70.6429 24.5121C72.0261 25.6092 72.2582 27.6203 71.1611 29.0044L40.6715 67.4518C40.1109 68.1588 39.2787 68.5951 38.3791 68.6558C38.3078 68.6606 38.2375 68.6626 38.1663 68.6626V68.6616Z" fill="#6FC443"/>
</svg>
