<svg width="90" height="90" viewBox="0 0 90 90" fill="none" xmlns="http://www.w3.org/2000/svg">
<g clip-path="url(#clip0_141_53)">
<path d="M45.0005 90C38.9266 90 33.0337 88.8095 27.4838 86.4622C22.1246 84.1958 17.3125 80.9517 13.1813 76.8196C9.04922 72.6875 5.80518 67.8754 3.53878 62.5171C1.19051 56.9672 0 51.0734 0 45.0005C0 38.9275 1.19051 33.0337 3.53782 27.4838C5.80421 22.1246 9.04826 17.3125 13.1804 13.1813C17.3125 9.04922 22.1246 5.80518 27.4828 3.53878C33.0328 1.19051 38.9266 0 45.0005 0C46.766 0 48.1983 1.43131 48.1983 3.19781C48.1983 4.96431 46.767 6.39562 45.0005 6.39562C39.7877 6.39562 34.7319 7.41564 29.9746 9.42775C25.3783 11.3724 21.249 14.1561 17.7026 17.7026C14.1561 21.249 11.3724 25.3783 9.42775 29.9746C7.41564 34.7319 6.39562 39.7877 6.39562 45.0005C6.39562 50.2133 7.41564 55.2691 9.42775 60.0263C11.3724 64.6227 14.1561 68.7519 17.7026 72.2984C21.249 75.8449 25.3783 78.6285 29.9746 80.5732C34.7319 82.5853 39.7877 83.6053 45.0005 83.6053C50.2133 83.6053 55.2691 82.5853 60.0263 80.5732C64.6227 78.6285 68.7519 75.8449 72.2984 72.2984C75.8449 68.7519 78.6285 64.6227 80.5732 60.0263C82.5853 55.2691 83.6053 50.2133 83.6053 45.0005C83.6053 34.9129 79.7391 25.3706 72.7193 18.1302C71.4903 16.8627 71.5211 14.838 72.7887 13.609C74.0562 12.3799 76.0809 12.4108 77.3099 13.6783C85.4932 22.1179 90 33.2418 90 45.0005C90 51.0744 88.8095 56.9672 86.4622 62.5171C84.1958 67.8764 80.9517 72.6885 76.8196 76.8196C72.6875 80.9517 67.8754 84.1958 62.5171 86.4622C56.9672 88.8095 51.0734 90 45.0005 90Z" fill="black"/>
<path d="M48.257 41.743L48.729 15.5835C48.7608 13.818 47.3555 12.3607 45.59 12.3289C43.8244 12.2971 42.3671 13.7024 42.3353 15.468L41.8585 41.8585L15.468 42.3353C13.7024 42.3671 12.2971 43.8244 12.3289 45.59C12.3607 47.3555 13.818 48.7608 15.5835 48.729L41.743 48.257L41.271 74.4165C41.2392 76.182 42.6445 77.6393 44.41 77.6711C45.3135 77.6875 46.1361 77.3272 46.7285 76.7349C47.3208 76.1425 47.6483 75.3941 47.6637 74.532L48.1405 48.1415L74.5311 47.6647C75.3931 47.6493 76.1685 47.2938 76.7339 46.7294C77.2993 46.165 77.6865 45.3145 77.6701 44.411C77.6383 42.6455 76.181 41.2402 74.4155 41.272L48.2561 41.7439L48.257 41.743Z" fill="#AA652C"/>
</g>
<defs>
<clipPath id="clip0_141_53">
<rect width="90" height="90" fill="white"/>
</clipPath>
</defs>
</svg>
